ModelForces
version=1
nRows=4
nColumns=155
inDegrees=no

This file contains the forces exerted on a model during a simulation.

A force is a generalized force, meaning that it can be either a force (N) or a torque (Nm).

Units are S.I. units (second, meters, Newtons, ...)
Angles are in degrees.

endheader
time	glut_med1_r	glut_med2_r	glut_med3_r	glut_min1_r	glut_min2_r	glut_min3_r	semimem_r	semiten_r	bifemlh_r	bifemsh_r	sar_r	add_long_r	add_brev_r	add_mag1_r	add_mag2_r	add_mag3_r	tfl_r	pect_r	grac_r	glut_max1_r	glut_max2_r	glut_max3_r	iliacus_r	psoas_r	quad_fem_r	gem_r	peri_r	rect_fem_r	vas_med_r	vas_int_r	vas_lat_r	med_gas_r	lat_gas_r	soleus_r	tib_post_r	flex_dig_r	flex_hal_r	tib_ant_r	per_brev_r	per_long_r	per_tert_r	ext_dig_r	ext_hal_r	glut_med1_l	glut_med2_l	glut_med3_l	glut_min1_l	glut_min2_l	glut_min3_l	semimem_l	semiten_l	bifemlh_l	bifemsh_l	sar_l	add_long_l	add_brev_l	add_mag1_l	add_mag2_l	add_mag3_l	tfl_l	pect_l	grac_l	glut_max1_l	glut_max2_l	glut_max3_l	iliacus_l	psoas_l	quad_fem_l	gem_l	peri_l	rect_fem_l	vas_med_l	vas_int_l	vas_lat_l	med_gas_l	lat_gas_l	soleus_l	tib_post_l	flex_dig_l	flex_hal_l	tib_ant_l	per_brev_l	per_long_l	per_tert_l	ext_dig_l	ext_hal_l	ercspn_r	ercspn_l	intobl_r	intobl_l	extobl_r	extobl_l	femur_lat_meniscii_r.femur_lat_r.force.X	femur_lat_meniscii_r.femur_lat_r.force.Y	femur_lat_meniscii_r.femur_lat_r.force.Z	femur_lat_meniscii_r.femur_lat_r.torque.X	femur_lat_meniscii_r.femur_lat_r.torque.Y	femur_lat_meniscii_r.femur_lat_r.torque.Z	femur_lat_meniscii_r.meniscus_lat_r.force.X	femur_lat_meniscii_r.meniscus_lat_r.force.Y	femur_lat_meniscii_r.meniscus_lat_r.force.Z	femur_lat_meniscii_r.meniscus_lat_r.torque.X	femur_lat_meniscii_r.meniscus_lat_r.torque.Y	femur_lat_meniscii_r.meniscus_lat_r.torque.Z	femur_med_meniscii_r.femur_med_r.force.X	femur_med_meniscii_r.femur_med_r.force.Y	femur_med_meniscii_r.femur_med_r.force.Z	femur_med_meniscii_r.femur_med_r.torque.X	femur_med_meniscii_r.femur_med_r.torque.Y	femur_med_meniscii_r.femur_med_r.torque.Z	femur_med_meniscii_r.meniscus_med_r.force.X	femur_med_meniscii_r.meniscus_med_r.force.Y	femur_med_meniscii_r.meniscus_med_r.force.Z	femur_med_meniscii_r.meniscus_med_r.torque.X	femur_med_meniscii_r.meniscus_med_r.torque.Y	femur_med_meniscii_r.meniscus_med_r.torque.Z	femur_med_tibia_r.tibia_upper_r.force.X	femur_med_tibia_r.tibia_upper_r.force.Y	femur_med_tibia_r.tibia_upper_r.force.Z	femur_med_tibia_r.tibia_upper_r.torque.X	femur_med_tibia_r.tibia_upper_r.torque.Y	femur_med_tibia_r.tibia_upper_r.torque.Z	femur_med_tibia_r.femur_med_r.force.X	femur_med_tibia_r.femur_med_r.force.Y	femur_med_tibia_r.femur_med_r.force.Z	femur_med_tibia_r.femur_med_r.torque.X	femur_med_tibia_r.femur_med_r.torque.Y	femur_med_tibia_r.femur_med_r.torque.Z	femur_lat_tibia_r.tibia_upper_r.force.X	femur_lat_tibia_r.tibia_upper_r.force.Y	femur_lat_tibia_r.tibia_upper_r.force.Z	femur_lat_tibia_r.tibia_upper_r.torque.X	femur_lat_tibia_r.tibia_upper_r.torque.Y	femur_lat_tibia_r.tibia_upper_r.torque.Z	femur_lat_tibia_r.femur_lat_r.force.X	femur_lat_tibia_r.femur_lat_r.force.Y	femur_lat_tibia_r.femur_lat_r.force.Z	femur_lat_tibia_r.femur_lat_r.torque.X	femur_lat_tibia_r.femur_lat_r.torque.Y	femur_lat_tibia_r.femur_lat_r.torque.Z	aACL_R	pACL_R	aPCL_R	pPCL_R	aMCL_R	mMCL_R	pMCL_R	aLCL_R	mLCL_R	pLCL_R	aPCL_L	pPCL_L	aMCL_L	aLCL_L
      0.10725403	      7.80454824	     11.40615290	     12.30025858	      5.20361527	      5.96276658	      6.61215364	    113.83238160	    166.83111054	    237.22889628	    370.69577888	    125.14307152	     11.39319149	      8.05419140	      0.00000000	      4.86704555	      8.56845426	      5.02528371	      0.00000000	     99.36132245	      7.37345218	     11.23121106	      8.47669610	     33.23564067	     25.01392399	      7.07847398	      4.59436883	      3.94740571	     38.90817550	      0.00000000	      0.00000000	      0.00000000	     22.40906724	      0.59481891	      0.00000000	      0.51996450	      2.82762138	      0.25886863	     30.41188021	      2.28117449	      3.51333352	      8.99762173	     17.29931814	      5.44326741	      7.80454824	     11.40615290	     12.30025858	      5.20361527	      5.96276658	      6.61215364	      0.00000000	      8.60199095	     14.92333020	     14.33858744	      2.96496063	     11.39319149	      8.05419140	      0.00000000	      4.86704555	      8.56845426	      6.89809309	      0.00000000	      3.07654743	      7.37345218	     11.23121106	      8.47669610	     33.23564067	     25.01392399	      7.07847398	      4.59436883	      3.94740571	     23.63287380	      0.00000000	      0.00000000	      0.00000000	     15.93303790	      8.30613775	     58.05612479	     57.84811067	      7.98594440	      7.38569870	     16.84693253	      9.51062340	     21.84487239	      3.86072048	     11.48432022	      3.88605486	     49.01195617	     49.01195617	     18.62172829	     18.62172829	     35.54411698	     35.54411698	     40.33708395	    233.75473209	     34.81816317	    -19.94690493	      1.05774498	     15.83200150	    -40.33708395	   -233.75473209	    -34.81816317	      7.14049343	     -1.49729684	      1.95528443	    -25.56446331	     45.92232736	      3.01485599	     -0.13755820	      0.60618130	    -10.47490140	     25.56446331	    -45.92232736	     -3.01485599	     -0.91562667	     -0.58121590	      1.16414967	    -75.77004651	   -507.75984289	    120.96259785	    -12.18549141	      2.11303348	      1.24428313	     75.77004651	    507.75984289	   -120.96259785	     59.53933063	     -1.05428021	     32.86208585	    -52.77287476	   -212.04777189	    -52.30491307	      7.19462681	     -1.88743888	      0.39227384	     52.77287476	    212.04777189	     52.30491307	    -26.73453404	      1.24409823	     21.93060103	     13.26010167	    -11.31576267	      0.00000000	     53.12390795	      0.00000000	      0.00000000	    -38.20311365	      0.00000000	      0.00000000	      0.00000000	      0.00000000	      0.00000000	      0.00000001	      0.00000000
      0.10807147	      8.56089845	     11.34374163	     12.23335333	      5.17605588	      5.93237750	      6.58303473	    113.42404280	    166.53603720	    235.26408306	    368.95276453	    125.31133201	     11.32991704	      8.01191656	      0.00000000	      4.85223953	      8.52006933	      5.02262724	      2.05772670	     99.37824509	      7.33329249	     11.16906829	      8.42919660	     33.11835825	     24.88039918	      7.05954987	      4.57516674	      4.10442416	     38.78368645	      0.00000000	      0.00000000	      0.00000000	     23.88728649	      0.55371091	      0.00000000	      0.00000000	      2.49494494	      0.07863065	     30.23405184	      2.51282609	      3.61188443	      9.00425877	     17.22951993	      5.41777467	      8.56089845	     11.34374163	     12.23335333	      5.17605588	      5.93237750	      6.58303473	      0.00000000	      8.55244135	     14.91629561	     14.26099943	      2.94932802	     11.32991704	      8.01191656	      0.00000000	      4.85223953	      8.52006933	      6.86962866	      2.05772670	      3.06005773	      7.33329249	     11.16906829	      8.42919660	     33.11835825	     24.88039918	      7.05954987	      4.57516674	      4.10442416	     23.51422500	      0.00000000	      0.00000000	      0.00000000	     16.23476012	      8.41761399	     58.10026787	     57.76028867	      7.90014086	      7.29408697	     16.82358023	      9.47649684	     21.80913207	      3.84037078	     11.57474155	      3.91531435	     48.75184078	     48.75184078	     18.51627305	     18.51627305	     35.44691297	     35.44691297	     41.33120314	    230.10166798	     36.11801466	    -20.41317537	      1.08223068	     16.25319772	    -41.33120314	   -230.10166798	    -36.11801466	      7.09410085	     -1.53997054	      1.90450242	    -24.02983362	     44.76807162	      3.77894351	     -0.48728648	      0.56796691	     -9.84161199	     24.02983362	    -44.76807162	     -3.77894351	     -0.86206928	     -0.55531168	      1.11130296	    -82.75861551	   -518.33019376	    122.91277236	    -12.42787287	      2.25379345	      1.13730222	     82.75861551	    518.33019376	   -122.91277236	     60.53282674	     -1.17313828	     35.80951378	    -51.37516285	   -204.69389062	    -50.79502618	      6.94805301	     -1.84648601	      0.41192083	     51.37516285	    204.69389062	     50.79502618	    -25.93342695	      1.21715489	     21.32636726	     13.80412888	    -10.75915984	      0.00000000	     53.58246772	      0.00000000	      0.00000000	    -36.77839821	      0.00000000	      0.00000000	      0.00000000	      0.00000000	      0.00000000	      0.00000001	      0.00000000
      0.10888892	      9.20914802	     11.28199627	     12.16705454	      5.14880340	      5.90233047	      6.55367536	    113.12215765	    166.42836490	    233.33754651	    367.63588143	    125.55295042	     11.26735568	      7.97011095	      0.00000000	      4.83653589	      8.47211594	      5.02401439	      2.99014223	     99.47293395	      7.29351478	     11.10761507	      8.38223037	     33.00242388	     24.74839963	      7.03789175	      4.55617028	      4.25210701	     38.64802682	      0.00000000	      0.00000000	      0.00000000	     25.52696132	      0.53586837	      0.00000000	      0.00000000	      2.16715965	      0.00000000	     30.04712752	      2.76806515	      3.73643895	      9.42474116	     17.19679944	      5.39274230	      9.20914802	     11.28199627	     12.16705454	      5.14880340	      5.90233047	      6.55367536	      0.00000000	      8.50344977	     14.90738424	     14.18428187	      2.93386921	     11.26735568	      7.97011095	      0.00000000	      4.83653589	      8.47211594	      6.84137336	      2.99014223	      3.04375239	      7.29351478	     11.10761507	      8.38223037	     33.00242388	     24.74839963	      7.03789175	      4.55617028	      4.25210701	     23.39584492	      0.00000000	      0.00000000	      0.00000000	     16.52295660	      8.52403709	     58.13258491	     57.67116589	      7.81619113	      7.20444633	     16.79794841	      9.44193623	     21.77234897	      3.82023971	     11.65790819	      3.94055766	     48.49462404	     48.49462404	     18.41200370	     18.41200370	     35.35083530	     35.35083530	     38.96884948	    226.55487278	     36.30146493	    -20.40344449	      1.01458358	     15.24957731	    -38.96884948	   -226.55487278	    -36.30146493	      6.99897897	     -1.47229970	      1.99640483	    -23.17790267	     44.15621555	      4.51107658	     -0.80892608	      0.54610870	     -9.49357357	     23.17790267	    -44.15621555	     -4.51107658	     -0.82316827	     -0.54408674	      1.08808420	    -87.02306768	   -519.87085299	    121.65494721	    -12.40769555	      2.32831643	      1.07735833	     87.02306768	    519.87085299	   -121.65494721	     60.01806921	     -1.25184630	     37.57973140	    -49.93949516	   -197.69953845	    -49.13635904	      6.70090073	     -1.80172563	      0.43603460	     49.93949516	    197.69953845	     49.13635904	    -25.07373926	      1.18807877	     20.70610948	     13.71871146	    -10.75236118	      0.00000000	     54.99421841	      0.00000000	      0.00000000	    -35.89560504	      0.00000000	      0.00000000	      0.00000000	      0.00000000	      0.00000000	      0.00000001	      0.00000000
      0.10970637	      9.76775182	     11.22091342	     12.10137095	      5.12185426	      5.87262143	      6.52411441	    112.83992717	    166.37044713	    231.27273094	    366.10250150	    125.75905861	     11.20549900	      7.92876910	      0.00000000	      4.82003304	      8.42459605	      5.02727660	      3.49209307	     99.54883475	      7.25412276	     11.04684477	      8.33579150	     32.88782124	     24.61790710	      7.01397373	      4.53737814	      4.39111721	     38.49320891	      0.00000000	      0.00000000	      0.00000000	     27.29975727	      0.53387400	      0.00000000	      0.00000000	      1.84613208	      0.00000000	     29.88392493	      3.04411528	      3.88246355	      7.58656249	     17.28726467	      5.36885036	      9.76775182	     11.22091342	     12.10137095	      5.12185426	      5.87262143	      6.52411441	      0.00000000	      8.45500966	     14.89663237	     14.10842453	      2.91858218	     11.20549900	      7.92876910	      0.00000000	      4.82003304	      8.42459605	      6.81333021	      3.49209307	      3.02762924	      7.25412276	     11.04684477	      8.33579150	     32.88782124	     24.61790710	      7.01397373	      4.53737814	      4.39111721	     23.27777968	      0.00000000	      0.00000000	      0.00000000	     16.79822536	      8.62560446	     58.15357830	     57.58079438	      7.73415444	      7.11687512	     16.77011739	      9.40697084	     21.73454470	      3.80032574	     11.73334540	      3.96166748	     48.24027206	     48.24027206	     18.30890656	     18.30890656	     35.25587017	     35.25587017	     36.31164723	    226.21141442	     35.66946317	    -20.12967377	      0.93905570	     14.10909089	    -36.31164723	   -226.21141442	    -35.66946317	      6.95867056	     -1.38793342	      2.14576786	    -22.66258516	     43.63965341	      5.14047074	     -1.08222366	      0.53202258	     -9.28934113	     22.66258516	    -43.63965341	     -5.14047074	     -0.79305228	     -0.53897060	      1.08087283	    -91.37118301	   -516.67097025	    120.51204376	    -12.32046008	      2.40554500	      0.97811937	     91.37118301	    516.67097025	   -120.51204376	     59.47116039	     -1.33204838	     39.37353062	    -48.32021671	   -190.53679616	    -48.21959792	      6.48012799	     -1.76101289	      0.46440705	     48.32021671	    190.53679616	     48.21959792	    -24.52387848	      1.15578833	     20.00850284	     13.03986168	    -11.24629134	      0.00000000	     56.48908068	      0.00000000	      0.00000000	    -35.99768817	      0.00000000	      0.00000000	      0.00000000	      0.00000000	      0.00000000	      0.00000001	      0.00000000
